<svg id="Layer_1" data-name="Layer 1" xmlns="http://www.w3.org/2000/svg" viewBox="0 0 128 128"><defs><style>.cls-1{fill:none;}.cls-2{fill:#ee4235;}.cls-3{fill:#0c9c50;}.cls-4{fill:#ee4436;}.cls-5{fill:#416ab2;}.cls-6{fill:#f6b41f;}</style></defs><polygon class="cls-1" points="67.663 20.171 67.56 20.171 67.56 20.089 67.663 20.171"/><polygon class="cls-2" points="103.156 31.663 103.156 128 96.037 128 96.037 46.423 92.633 49.13 88.918 52.086 86.915 53.679 81.798 57.749 81.197 58.227 75.478 53.679 81.197 49.131 81.798 48.652 86.915 44.582 88.918 42.989 92.633 40.034 96.037 37.326 103.156 31.663"/><polygon class="cls-3" points="81.197 58.227 75.478 62.776 74.679 62.14 69.761 58.227 74.679 54.315 75.478 53.679 81.197 58.227"/><polygon class="cls-3" points="75.478 53.679 74.679 54.315 69.761 58.227 67.56 56.476 64.042 53.679 67.56 50.881 69.761 49.13 74.679 53.043 75.478 53.679"/><polygon class="cls-3" points="88.918 64.369 88.918 128 81.798 128 81.798 67.803 81.197 67.325 75.478 62.776 81.197 58.227 81.798 58.706 86.915 62.776 88.918 64.369"/><polygon class="cls-3" points="64.042 53.679 60.44 56.544 58.324 58.227 53.321 54.248 52.606 53.679 53.321 53.11 58.325 49.13 60.44 50.814 64.042 53.679"/><polygon class="cls-4" points="75.478 62.776 74.679 63.412 69.761 67.325 67.56 65.574 64.042 62.776 67.56 59.978 69.761 58.227 74.679 62.14 75.478 62.776"/><polygon class="cls-1" points="69.761 58.227 67.56 59.978 64.042 62.776 60.44 59.911 58.324 58.227 60.44 56.544 64.042 53.679 67.56 56.476 69.761 58.227"/><polygon class="cls-5" points="58.324 58.227 53.321 62.208 52.606 62.776 46.888 58.227 52.606 53.679 53.321 54.248 58.324 58.227"/><polygon class="cls-4" points="69.761 67.325 67.56 69.075 64.042 71.873 60.44 69.008 58.325 67.325 60.44 65.641 64.042 62.776 67.56 65.574 69.761 67.325"/><polygon class="cls-5" points="64.042 62.776 60.44 65.641 58.325 67.325 53.321 63.344 52.606 62.776 53.321 62.208 58.324 58.227 60.44 59.911 64.042 62.776"/><polygon class="cls-5" points="74.679 71.237 74.679 128 67.56 128 67.56 74.671 64.042 71.873 67.56 69.075 69.761 67.325 74.679 71.237"/><polygon class="cls-5" points="52.606 53.679 46.888 58.227 46.202 57.682 41.17 53.679 39.082 52.019 35.451 49.13 31.963 46.355 31.963 128 24.844 128 24.844 31.595 31.963 37.259 35.451 40.034 39.082 42.922 41.17 44.582 46.202 48.584 46.888 49.131 52.606 53.679"/><polygon class="cls-3" points="52.606 62.776 46.888 67.325 46.202 67.87 46.202 128 39.082 128 39.082 64.437 41.17 62.776 46.202 58.773 46.888 58.227 52.606 62.776"/><polygon class="cls-4" points="64.042 71.873 60.44 74.738 60.44 128 53.321 128 53.321 71.305 58.325 67.325 60.44 69.008 64.042 71.873"/><path class="cls-6" d="M81.8,31.415l-.6-.478-5.719-4.549-.8-.636-4.918-3.913-2.1-1.668-.1-.074V2.6L64.074,0,60.44,2.6V20.171h-.019l-2.1,1.668-5,3.981-.715.568-5.718,4.549-.686.545-5.032,4,5.032,4,.686.546,5.718,4.549.715.569,5,3.979,2.115,1.684,3.6,2.865,3.518-2.8,2.2-1.751,4.918-3.912.8-.636L81.2,40.033l.6-.478,5.117-4.07Zm-7.119,4.706-4.918,3.913-2.2,1.75-3.518,2.8-3.6-2.866-2.115-1.682-5-3.98-.715-.569.715-.569,5-3.979,2.115-1.684,3.6-2.865,3.518,2.8,2.2,1.751,4.918,3.911.8.637Z"/></svg>