<svg id="Layer_1" data-name="Layer 1" xmlns="http://www.w3.org/2000/svg" viewBox="0 0 448.132 128"><defs><style>.cls-1{fill:none;}.cls-2{fill:#ee4235;}.cls-3{fill:#0c9c50;}.cls-4{fill:#ee4436;}.cls-5{fill:#416ab2;}.cls-6{fill:#f6b41f;}.cls-7{font-size:19.578px;letter-spacing:0.2em;}.cls-7,.cls-8{fill:#231f20;font-family:Assassin$;}.cls-8{font-size:17.269px;letter-spacing:0.1em;}</style></defs><polygon class="cls-1" points="42.82 20.171 42.716 20.171 42.716 20.089 42.82 20.171"/><polygon class="cls-2" points="78.313 31.663 78.313 128 71.194 128 71.194 46.423 67.79 49.13 64.074 52.086 62.071 53.679 56.955 57.749 56.354 58.227 50.635 53.679 56.354 49.131 56.955 48.652 62.072 44.582 64.074 42.989 67.79 40.034 71.194 37.326 78.313 31.663"/><polygon class="cls-3" points="56.354 58.227 50.635 62.776 49.836 62.14 44.917 58.227 49.836 54.315 50.635 53.679 56.354 58.227"/><polygon class="cls-3" points="50.635 53.679 49.836 54.315 44.917 58.227 42.716 56.476 39.199 53.679 42.716 50.881 44.917 49.13 49.836 53.043 50.635 53.679"/><polygon class="cls-3" points="64.074 64.369 64.074 128 56.955 128 56.955 67.803 56.354 67.325 50.635 62.776 56.354 58.227 56.955 58.706 62.071 62.776 64.074 64.369"/><polygon class="cls-3" points="39.199 53.679 35.597 56.544 33.48 58.227 28.478 54.248 27.763 53.679 28.478 53.11 33.481 49.13 35.597 50.814 39.199 53.679"/><polygon class="cls-4" points="50.635 62.776 49.836 63.412 44.917 67.325 42.716 65.574 39.199 62.776 42.716 59.978 44.917 58.227 49.836 62.14 50.635 62.776"/><polygon class="cls-1" points="44.917 58.227 42.716 59.978 39.199 62.776 35.597 59.911 33.48 58.227 35.597 56.544 39.199 53.679 42.716 56.476 44.917 58.227"/><polygon class="cls-5" points="33.48 58.227 28.478 62.208 27.763 62.776 22.044 58.227 27.763 53.679 28.478 54.248 33.48 58.227"/><polygon class="cls-4" points="44.917 67.325 42.716 69.075 39.199 71.873 35.597 69.008 33.481 67.325 35.597 65.641 39.199 62.776 42.716 65.574 44.917 67.325"/><polygon class="cls-5" points="39.199 62.776 35.597 65.641 33.481 67.325 28.478 63.344 27.763 62.776 28.478 62.208 33.48 58.227 35.597 59.911 39.199 62.776"/><polygon class="cls-5" points="49.836 71.237 49.836 128 42.716 128 42.716 74.671 39.199 71.873 42.716 69.075 44.917 67.325 49.836 71.237"/><polygon class="cls-5" points="27.763 53.679 22.044 58.227 21.358 57.682 16.326 53.679 14.239 52.019 10.608 49.13 7.12 46.355 7.12 128 0 128 0 31.595 7.12 37.259 10.608 40.034 14.239 42.922 16.326 44.582 21.358 48.584 22.044 49.131 27.763 53.679"/><polygon class="cls-3" points="27.763 62.776 22.044 67.325 21.358 67.87 21.358 128 14.239 128 14.239 64.437 16.326 62.776 21.358 58.773 22.044 58.227 27.763 62.776"/><polygon class="cls-4" points="39.199 71.873 35.597 74.738 35.597 128 28.478 128 28.478 71.305 33.481 67.325 35.597 69.008 39.199 71.873"/><path class="cls-6" d="M56.955,31.415l-.6-.478-5.719-4.549-.8-.636-4.919-3.913-2.1-1.668-.1-.074V2.6L39.231,0,35.6,2.6V20.171h-.019l-2.1,1.668-5,3.981-.715.568-5.718,4.549-.687.545-5.032,4,5.032,4,.687.546,5.718,4.549.715.569,5,3.979L35.6,50.814l3.6,2.865,3.517-2.8,2.2-1.751,4.919-3.912.8-.636,5.719-4.549.6-.478,5.116-4.07Zm-7.119,4.706-4.919,3.913-2.2,1.75-3.517,2.8-3.6-2.866-2.116-1.682-5-3.98-.715-.569.715-.569,5-3.979L35.6,29.253l3.6-2.865,3.517,2.8,2.2,1.751,4.919,3.911.8.637Z"/><text class="cls-7" transform="translate(123.529 58.834)">WILWATIKTA JAYA ABADI</text><text class="cls-8" transform="translate(167.182 82.246) scale(1.083 1)">we build trust and loyalty</text></svg>