<svg id="Layer_1" data-name="Layer 1" xmlns="http://www.w3.org/2000/svg" viewBox="0 0 2665.496 256"><defs><style>.cls-1{fill:none;}.cls-2{fill:#ee4235;}.cls-3{fill:#0c9c50;}.cls-4{fill:#ee4436;}.cls-5{fill:#416ab2;}.cls-6{fill:#f6b41f;}.cls-7{fill:#231f20;}</style></defs><polygon class="cls-1" points="85.64 40.343 85.432 40.343 85.432 40.178 85.64 40.343"/><polygon class="cls-2" points="156.626 63.325 156.626 256 142.387 256 142.387 92.845 135.579 98.26 128.148 104.172 124.142 107.358 113.91 115.498 112.707 116.455 101.27 107.358 112.707 98.262 113.91 97.304 124.144 89.164 128.148 85.978 135.579 80.067 142.387 74.652 156.626 63.325"/><polygon class="cls-3" points="112.707 116.455 101.27 125.551 99.671 124.28 89.834 116.455 99.671 108.631 101.27 107.358 112.707 116.455"/><polygon class="cls-3" points="101.27 107.358 99.671 108.631 89.834 116.455 85.432 112.953 78.397 107.358 85.432 101.762 89.834 98.26 99.671 106.086 101.27 107.358"/><polygon class="cls-3" points="128.148 128.739 128.148 256 113.91 256 113.91 135.606 112.707 134.649 101.27 125.551 112.707 116.455 113.91 117.411 124.142 125.553 128.148 128.739"/><polygon class="cls-3" points="78.397 107.358 71.194 113.088 66.96 116.455 56.955 108.496 55.525 107.358 56.955 106.221 66.962 98.26 71.194 101.627 78.397 107.358"/><polygon class="cls-4" points="101.27 125.551 99.671 126.824 89.834 134.649 85.432 131.147 78.397 125.553 85.432 119.957 89.834 116.455 99.671 124.28 101.27 125.551"/><polygon class="cls-1" points="89.834 116.455 85.432 119.957 78.397 125.553 71.194 119.822 66.96 116.455 71.194 113.088 78.397 107.358 85.432 112.953 89.834 116.455"/><polygon class="cls-5" points="66.96 116.455 56.955 124.415 55.525 125.551 44.088 116.455 55.525 107.358 56.955 108.496 66.96 116.455"/><polygon class="cls-4" points="89.834 134.649 85.432 138.151 78.397 143.746 71.194 138.016 66.962 134.649 71.194 131.282 78.397 125.553 85.432 131.147 89.834 134.649"/><polygon class="cls-5" points="78.397 125.553 71.194 131.282 66.962 134.649 56.955 126.689 55.525 125.551 56.955 124.415 66.96 116.455 71.194 119.822 78.397 125.553"/><polygon class="cls-5" points="99.671 142.475 99.671 256 85.432 256 85.432 149.342 78.397 143.746 85.432 138.151 89.834 134.649 99.671 142.475"/><polygon class="cls-5" points="55.525 107.358 44.088 116.455 42.716 115.363 32.653 107.358 28.477 104.037 21.216 98.26 14.239 92.71 14.239 256 0 256 0 63.19 14.239 74.517 21.216 80.067 28.477 85.843 32.653 89.164 42.716 97.169 44.088 98.262 55.525 107.358"/><polygon class="cls-3" points="55.525 125.551 44.088 134.649 42.716 135.741 42.716 256 28.477 256 28.477 128.874 32.653 125.553 42.716 117.546 44.088 116.455 55.525 125.551"/><polygon class="cls-4" points="78.397 143.746 71.194 149.477 71.194 256 56.955 256 56.955 142.61 66.962 134.649 71.194 138.016 78.397 143.746"/><path class="cls-6" d="M113.91,62.83l-1.2-.957-11.437-9.1-1.6-1.273-9.837-7.825L85.64,40.343l-.208-.148v-35L78.461,0,71.194,5.191V40.343h-.039l-4.193,3.336-10.007,7.96-1.43,1.138-11.435,9.1-1.374,1.092-10.063,8,10.063,8,1.374,1.092,11.435,9.1,1.43,1.138L66.962,98.26l4.232,3.367,7.2,5.731,7.035-5.6,4.4-3.5,9.837-7.825,1.6-1.271,11.437-9.1,1.2-.957,10.232-8.139ZM99.671,72.242l-9.837,7.825-4.4,3.5-7.035,5.6-7.2-5.731-4.232-3.366-10.007-7.96-1.43-1.137,1.43-1.138,10.007-7.959,4.232-3.367,7.2-5.731,7.035,5.6,4.4,3.5L99.671,69.7l1.6,1.273Z"/><path class="cls-7" d="M373.432,31.748q4.95,16.458,12.816,41.359L404.6,8.01l13.252.145q-1.311,2.331-2.184,4.151t-1.894,3.568q-.292.731-.509,1.31a5.029,5.029,0,0,1-.51,1.02q-1.747,2.621-6.7,17.913-2.478,7.426-4.515,13.689T398.19,60.291q-1.748,5.828-3.568,12.306t-3.641,12.816q-1.822,6.335-3.5,12.233t-2.84,10.412q-3.205-10.485-6.626-21.553t-6.845-21.99q-3.423-10.923-6.844-21.481T357.7,22.864q-.873,2.331-1.966,5.461t-2.4,7.355q-2.478,7.426-4.514,13.689t-3.35,10.485q-1.748,5.828-3.568,12.306t-3.64,12.816q-1.824,6.334-3.5,12.233t-2.839,10.412q-3.353-10.627-6.772-21.844t-6.918-22.355q-3.495-11.141-6.917-21.844T304.7,21.262a26.819,26.819,0,0,0-3.35-8.155q-2.042-3.058-4.078-5.534l16.6-.146q1.891,7.428,6.845,23.884T333.53,72.67l17.33-61.456c.095-.292.218-.7.364-1.238s.314-1.188.51-1.966l.145-.437,13.253.145a.129.129,0,0,1-.146.146h1.6Q368.48,15.292,373.432,31.748Z"/><path class="cls-7" d="M498.675,7.282a11.545,11.545,0,0,0-6.554,2.4A21.768,21.768,0,0,0,487.461,15V88.252a10.694,10.694,0,0,0,2.185,6.845,13.927,13.927,0,0,0,3.64,3.714,13.3,13.3,0,0,0,5.1,2.111q.289.294.145.437-.584.437-3.641.291a283.031,283.031,0,0,0-28.98,0q-2.184.144-2.913-.582a13.832,13.832,0,0,0,8.374-3.568,10.738,10.738,0,0,0,3.714-7.354V19.515a10.7,10.7,0,0,0-1.165-5.1,16.071,16.071,0,0,0-3.132-5.024,5.817,5.817,0,0,0-4.3-2.111q1.164-.291,16.457-.365T498.675,7.282Z"/><path class="cls-7" d="M572.072,86.942q0,6.554,7.718,8.155,1.892.294,13.253.291a38.561,38.561,0,0,0,9.32-1.019q8.737-2.475,12.888-5.461a13.325,13.325,0,0,0,5.316-6.772l.145.146L617.8,101.068l-.146.874-1.165-.146a23.729,23.729,0,0,1-3.058.146q-11.07-.584-28.253-.583-12.527,0-33.64.146v-.146a8.231,8.231,0,0,0,5.9-3.859q2.109-3.276,2.111-9.1l.146-49.951h-.146V21.7H559.4v-.146q0-5.823-2.112-9.1a8.233,8.233,0,0,0-5.9-3.859V8.447h28.981v.145a8,8,0,0,0-5.9,4.3q-2.114,3.714-2.4,12.452Z"/><path class="cls-7" d="M740.129,31.748q4.95,16.458,12.816,41.359l18.349-65.1,13.253.145q-1.311,2.331-2.185,4.151t-1.893,3.568q-.293.731-.509,1.31a5.029,5.029,0,0,1-.51,1.02q-1.748,2.621-6.7,17.913-2.478,7.426-4.515,13.689t-3.349,10.485q-1.747,5.828-3.568,12.306t-3.641,12.816q-1.823,6.335-3.5,12.233t-2.84,10.412q-3.205-10.485-6.626-21.553t-6.845-21.99q-3.423-10.923-6.845-21.481T724.4,22.864q-.873,2.331-1.966,5.461t-2.4,7.355q-2.478,7.426-4.514,13.689t-3.35,10.485q-1.747,5.828-3.568,12.306t-3.641,12.816q-1.822,6.334-3.495,12.233t-2.839,10.412q-3.352-10.627-6.772-21.844t-6.918-22.355q-3.495-11.141-6.917-21.844t-6.626-20.316a26.819,26.819,0,0,0-3.35-8.155Q666,10.049,663.964,7.573l16.6-.146q1.891,7.428,6.845,23.884T700.227,72.67l17.33-61.456c.1-.292.218-.7.364-1.238s.314-1.188.509-1.966l.146-.437,13.252.145a.129.129,0,0,1-.145.146h1.6Q735.175,15.292,740.129,31.748Z"/><path class="cls-7" d="M828.818,101.505H811.2l-.146-.146a7.763,7.763,0,0,0,5.243-3.276q1.894-2.694,4.078-5.462,2.184-2.621,9.975-19.587T842.216,46.6Q852.845,20.535,860.566,0q19.514,46.458,38.592,88.544a23.86,23.86,0,0,0,5.534,9.029,13.263,13.263,0,0,0,7.282,3.786v.146l-22.573.145q-6.264-16.455-9.9-25.485h-41.5ZM876.585,69.32q-.437-1.017-17.912-43.543l-18.5,44.708h36.99Z"/><path class="cls-7" d="M1030.516,8.155q-.147,13.544-.292,23.156h-.582q-6.554-9.756-11.068-12.961-5.68-4.076-19.515-4.078h-5.534c-1.747.2-2.719.582-2.912,1.165a2.056,2.056,0,0,0-.291,1.165l-.146,71.65A10.7,10.7,0,0,0,992.36,95.1,13.946,13.946,0,0,0,996,98.811a13.29,13.29,0,0,0,5.1,2.111c.194.2.241.342.146.437q-.584.437-3.641.291a283.031,283.031,0,0,0-28.98,0q-2.186.144-2.913-.582a13.837,13.837,0,0,0,8.374-3.568,10.733,10.733,0,0,0,3.713-7.354L977.652,16.6a2.338,2.338,0,0,0-1.457-2.185h-7.718q-13.837,0-19.515,4.078-4.515,3.206-11.068,12.961h-.582q-.147-9.61-.292-23.155l40.049.146Z"/><path class="cls-7" d="M1110.9,7.282a11.545,11.545,0,0,0-6.554,2.4,21.768,21.768,0,0,0-4.66,5.316V88.252a10.7,10.7,0,0,0,2.185,6.845,13.927,13.927,0,0,0,3.64,3.714,13.3,13.3,0,0,0,5.1,2.111q.289.294.145.437-.584.437-3.641.291a283.031,283.031,0,0,0-28.98,0q-2.184.144-2.913-.582A13.832,13.832,0,0,0,1083.6,97.5a10.738,10.738,0,0,0,3.714-7.354V19.515a10.69,10.69,0,0,0-1.165-5.1,16.087,16.087,0,0,0-3.131-5.024,5.82,5.82,0,0,0-4.3-2.111q1.164-.291,16.457-.365T1110.9,7.282Z"/><path class="cls-7" d="M1184.591,56.359V88.252a10.694,10.694,0,0,0,2.185,6.845,13.927,13.927,0,0,0,3.64,3.714,13.3,13.3,0,0,0,5.1,2.111c.194.2.242.342.146.437q-.584.437-3.641.291a283.031,283.031,0,0,0-28.98,0q-2.186.144-2.913-.582A13.837,13.837,0,0,0,1168.5,97.5a10.733,10.733,0,0,0,3.713-7.354q-.293-71.794-1.456-73.981a16.039,16.039,0,0,0-3.131-5.024,5.82,5.82,0,0,0-4.3-2.112q1.164-.29,16.456-.364t15.728.364a11.553,11.553,0,0,0-6.553,2.4,21.708,21.708,0,0,0-4.66,5.316l.291,34.8q20.1-16.744,37.282-31.31a17.57,17.57,0,0,0,4.3-4.879,3.311,3.311,0,0,0,.073-3.349,6.194,6.194,0,0,0-3.132-2.258,44.382,44.382,0,0,0-5.169-1.6l7.135.292,22.719-.292-16.6,12.088h.146q-2.769,1.895-8.01,6.189t-29.272,24.539q10.776,10.343,37.427,39.757a32.786,32.786,0,0,0,8.447,7.719,20.778,20.778,0,0,0,8.155,3.2v.146l-21.7-.291Z"/><path class="cls-7" d="M1384.542,8.155q-.147,13.544-.291,23.156h-.583q-6.553-9.756-11.068-12.961-5.679-4.076-19.514-4.078h-5.534c-1.748.2-2.72.582-2.913,1.165a2.056,2.056,0,0,0-.291,1.165l-.146,71.65a10.7,10.7,0,0,0,2.184,6.845,13.946,13.946,0,0,0,3.641,3.714,13.3,13.3,0,0,0,5.1,2.111c.194.2.242.342.146.437q-.583.437-3.641.291a283.031,283.031,0,0,0-28.98,0q-2.185.144-2.913-.582a13.832,13.832,0,0,0,8.374-3.568,10.733,10.733,0,0,0,3.713-7.354l-.145-73.544a2.338,2.338,0,0,0-1.457-2.185H1322.5q-13.837,0-19.515,4.078-4.515,3.206-11.068,12.961h-.582q-.147-9.61-.291-23.155l40.048.146Z"/><path class="cls-7" d="M1428.376,101.505h-17.622l-.145-.146a7.761,7.761,0,0,0,5.242-3.276q1.894-2.694,4.078-5.462,2.184-2.621,9.976-19.587T1441.774,46.6Q1452.4,20.535,1460.123,0q19.514,46.458,38.592,88.544a23.872,23.872,0,0,0,5.534,9.029,13.269,13.269,0,0,0,7.282,3.786v.146l-22.573.145q-6.263-16.455-9.9-25.485H1437.55Zm47.767-32.185q-.438-1.017-17.913-43.543l-18.5,44.708h36.99Z"/><path class="cls-7" d="M1651.48,7.282a11.545,11.545,0,0,0-6.554,2.4,21.768,21.768,0,0,0-4.66,5.316l-.291,79.515q0,16.164-9.029,25.048-8.158,7.864-21.408,7.864-8.738,0-13.689-3.058a2.746,2.746,0,0,1-1.457-2.476q0-1.748.583-16.893l.291.437q6.264,7.717,10.486,10.485,5.679,3.639,10.194,3.641,6.117,0,8.446-3.641a10.8,10.8,0,0,0,2.112-4.369,23.624,23.624,0,0,0,.8-6.262V92.913q0-5.244.073-14.636t.218-23.738q.144-14.343.292-35.024a10.69,10.69,0,0,0-1.166-5.1,16.067,16.067,0,0,0-3.13-5.024,5.82,5.82,0,0,0-4.3-2.111q1.164-.291,16.457-.365T1651.48,7.282Z"/><path class="cls-7" d="M1699.391,101.505H1681.77l-.146-.146a7.763,7.763,0,0,0,5.243-3.276q1.895-2.694,4.078-5.462,2.184-2.621,9.975-19.587T1712.789,46.6q10.629-26.067,18.35-46.6,19.514,46.458,38.592,88.544a23.847,23.847,0,0,0,5.534,9.029,13.263,13.263,0,0,0,7.281,3.786v.146l-22.572.145q-6.264-16.455-9.9-25.485h-41.5Zm47.767-32.185q-.436-1.017-17.913-43.543L1710.75,70.485h36.991Z"/><path class="cls-7" d="M1873.273,101.359l-12.67-.145h-2.476q-5.826,0-13.543.145v-.145a8.229,8.229,0,0,0,5.9-3.86q2.109-3.276,2.111-9.1l-.145-22.135a186.178,186.178,0,0,0-22.209-34.224q-12.6-15.291-16.6-19.369a13.609,13.609,0,0,0-9.1-4.369q.727-.726,3.786-.291,11.213,0,19.806.146L1835.7,20.1q1.164,1.747,2.621,3.641l20.971,31.019q.875,1.311,1.311,1.311c.387,0,.874-.437,1.456-1.311q3.058-4.659,10.631-15.364t22.719-30.946l.291-.292h12.67v.292a4.364,4.364,0,0,0-2.33.728q-1.167.73-2.185,1.456a118.692,118.692,0,0,0-10.922,12.67q-12.526,16.166-15.583,20.388-7.137,9.759-12.524,18.641l.437,25.922q0,5.828,2.112,9.1a8.217,8.217,0,0,0,5.9,3.86Z"/><path class="cls-7" d="M1951.622,101.505H1934l-.145-.146a7.765,7.765,0,0,0,5.243-3.276q1.895-2.694,4.077-5.462,2.186-2.621,9.976-19.587T1965.02,46.6q10.629-26.067,18.35-46.6,19.514,46.458,38.592,88.544a23.847,23.847,0,0,0,5.534,9.029,13.263,13.263,0,0,0,7.281,3.786v.146l-22.573.145q-6.263-16.455-9.9-25.485h-41.5Zm47.767-32.185q-.437-1.017-17.913-43.543l-18.5,44.708h36.99Z"/><path class="cls-7" d="M2138.173,101.505h-17.622l-.145-.146a7.761,7.761,0,0,0,5.242-3.276q1.894-2.694,4.078-5.462Q2131.91,90,2139.7,73.034T2151.571,46.6Q2162.2,20.535,2169.92,0q19.514,46.458,38.593,88.544a23.847,23.847,0,0,0,5.534,9.029,13.263,13.263,0,0,0,7.281,3.786v.146l-22.573.145q-6.263-16.455-9.9-25.485h-41.5ZM2185.94,69.32q-.437-1.017-17.913-43.543l-18.495,44.708h36.99Z"/><path class="cls-7" d="M2323.559,75.146q0,13.691-10.631,20.534-6.7,4.515-17.184,5.825h-30.583l-12.67.145v-.145a8.227,8.227,0,0,0,5.9-3.859q2.11-3.278,2.112-9.1l.146-66.554h-.146v-.145q0-5.823-2.112-9.1a8.234,8.234,0,0,0-5.9-3.86V8.738l36.408-.291q11.94.437,18.932,4.951,8.592,5.537,8.592,16.456,0,14.418-17.621,20.1-2.042.585.146,1.02Q2323.557,55.2,2323.559,75.146Zm-21.553-44.127q0-9.318-4.806-13.4-4.662-4.221-15-4.223-8.3,0-8.883,2.476a6.082,6.082,0,0,0-.146,1.456V48.2h6.262q11.8,0,17.185-4.005T2302.006,31.019ZM2309,76.748q0-11.8-7.864-17.767-6.7-5.1-17.621-5.1a58.988,58.988,0,0,0-10.34.729V89.854q0,6.847,14.126,6.845Q2308.995,96.7,2309,76.748Z"/><path class="cls-7" d="M2371.762,101.505h-17.621l-.146-.146a7.765,7.765,0,0,0,5.243-3.276q1.895-2.694,4.077-5.462,2.186-2.621,9.976-19.587T2385.16,46.6q10.629-26.067,18.349-46.6,19.514,46.458,38.593,88.544a23.847,23.847,0,0,0,5.534,9.029,13.263,13.263,0,0,0,7.281,3.786v.146l-22.573.145q-6.263-16.455-9.9-25.485h-41.5Zm47.767-32.185q-.437-1.017-17.913-43.543l-18.495,44.708h36.99Z"/><path class="cls-7" d="M2485.5,101.359a8.227,8.227,0,0,0,5.9-3.859q2.109-3.276,2.112-9.1l.291-66.7h-.145v-.146q0-5.823-2.112-9.1a8.237,8.237,0,0,0-5.9-3.859V8.447q24.609-.727,41.213-.729,24.611,0,39.466,11.8,15.435,12.233,15.437,33.495,0,24.759-16.31,37.573-15.292,11.8-39.175,11.067-5.537,0-40.777-.145Zm21.262-17.33q0,6.99,3.714,9.321t14.781,2.33q41.649,0,41.651-40.777,0-41.211-42.379-41.214h-9.9q-7.863.73-7.864,4.369Z"/><path class="cls-7" d="M2665.642,7.282a11.548,11.548,0,0,0-6.554,2.4,21.768,21.768,0,0,0-4.66,5.316V88.252a10.694,10.694,0,0,0,2.185,6.845,13.916,13.916,0,0,0,3.641,3.714,13.283,13.283,0,0,0,5.1,2.111q.289.294.145.437-.584.437-3.64.291a283.051,283.051,0,0,0-28.981,0q-2.184.144-2.913-.582a13.832,13.832,0,0,0,8.374-3.568,10.738,10.738,0,0,0,3.714-7.354V19.515a10.7,10.7,0,0,0-1.165-5.1,16.087,16.087,0,0,0-3.131-5.024,5.82,5.82,0,0,0-4.3-2.111q1.164-.291,16.457-.365T2665.642,7.282Z"/><path class="cls-7" d="M660.99,217.657q2.712,8.285,7.023,20.745l10.014-32.884,7.231.128q-.7,1.157-1.182,2.12t-1.043,1.862a5.035,5.035,0,0,1-.278.643c-.093.172-.187.343-.278.513q-1.114,1.416-3.755,8.992-1.251,3.727-2.364,6.872t-1.808,5.331q-.975,2.956-2.017,6.23t-2.086,6.487q-1.043,3.213-1.877,6.1t-1.391,5.2q-3.618-10.661-7.51-21.837T652.438,213.1a25.6,25.6,0,0,0-1.113,2.761q-.558,1.608-1.252,3.661-1.391,3.727-2.5,6.937t-1.808,5.266q-.973,2.957-2.016,6.23t-2.017,6.487q-.975,3.213-1.877,6.166t-1.46,5.138q-1.809-5.265-3.686-10.918t-3.755-11.3q-1.876-5.652-3.755-11.047t-3.685-10.148a12.739,12.739,0,0,0-1.808-4.111q-1.114-1.541-2.225-2.826l9.039-.128q.972,3.854,3.686,12.074t7.023,20.938l9.457-31.085a2.259,2.259,0,0,0,.208-.643c.046-.257.115-.6.209-1.027l.139-.129h7.232v.129h.834Q658.277,209.371,660.99,217.657Z"/><path class="cls-7" d="M742.553,253.431a6.86,6.86,0,0,1-1.668.128q-6.121-.384-15.437-.385h-8q-4.521,0-10.361.129,4.451-.642,4.451-6.552V213.225q0-5.907-4.451-6.551v-.129h14.464q3.057,0,5.771-.064t5.215-.193h.557q1.8,0,3.407-.064t3.129-.192q2.5-.128,2.5.385v7.45q-.281-2.054-2.851-2.954t-9.943-1.413q-1.669-.127-3.964-.129h-5.215a2.564,2.564,0,0,0-1.669.386,2.409,2.409,0,0,0-.139,1.156v15.029q0,.771,1.113.771h4.659q3.683,0,10.221.128,3.2,0,4.659-1.349a5.311,5.311,0,0,0,1.738-3.147h.14q-.141,2.827,0,11.818-.836-4.11-7.093-4.111-2.5-.126-6.189-.192t-8.553-.065c-.465,0-.695.173-.695.514v15.672q0,3.341,4.172,4.11.694.129,7.232.129a21.153,21.153,0,0,0,5.006-.514,21.807,21.807,0,0,0,7.093-2.7,7.56,7.56,0,0,0,2.92-3.34l-1.529,9.378-.139.513Z"/><path class="cls-7" d="M866.323,239.686a11.331,11.331,0,0,1-5.841,10.405,23.163,23.163,0,0,1-9.456,2.826H834.337l-6.953.129v-.129q4.449-.641,4.45-6.423V212.84q0-5.781-4.45-6.552l19.887-.256A20.772,20.772,0,0,1,857.7,208.6a9.033,9.033,0,0,1,4.728,8.221q0,7.322-9.735,10.148c-.649.256-.6.429.139.513Q866.321,229.54,866.323,239.686ZM854.5,217.464q0-4.75-2.642-6.808-2.784-2.183-8.205-2.184-4.73,0-4.868,1.285V226.07h3.338q6.395,0,9.387-1.991T854.5,217.464Zm3.894,22.993a10.365,10.365,0,0,0-4.311-8.992,17.324,17.324,0,0,0-9.735-2.569,31.917,31.917,0,0,0-5.563.386v17.855q0,3.342,7.649,3.34Q858.4,250.477,858.4,240.457Z"/><path class="cls-7" d="M928.764,205.389l13.211-.128v.128q-4.312.645-4.311,6.551v20.81q.694,10.019-4.867,15.286-5.7,5.4-16.55,5.4-22.809,0-22.807-19.782V211.94q0-5.907-4.45-6.551v-.128h15.854a4.544,4.544,0,0,0-3.2,2.248q-1.114,1.863-1.252,6.1v18.755q0,9.248,4.033,13.423t13.212,4.175q15.714,0,15.715-16.571l-.139-21.452Q933.214,206.16,928.764,205.389Z"/><path class="cls-7" d="M981.748,205.646a7.238,7.238,0,0,0-3.477,1.285,10.641,10.641,0,0,0-2.5,2.7v36.866a5.426,5.426,0,0,0,1.113,3.469,8.9,8.9,0,0,0,4.728,2.954l.14.129a3.964,3.964,0,0,1-1.947.257q-10.295-.386-15.854,0a2.562,2.562,0,0,1-1.669-.386,7.164,7.164,0,0,0,4.589-1.734,5.985,5.985,0,0,0,2.086-3.789V211.812a5.378,5.378,0,0,0-.695-2.569,10.035,10.035,0,0,0-1.739-2.5,3.134,3.134,0,0,0-2.294-1.092q.417-.126,8.9-.128T981.748,205.646Z"/><path class="cls-7" d="M1013.871,245.081q0,3.342,4.172,4.111.694.129,7.232.128a31.144,31.144,0,0,0,5.007-.385,24.9,24.9,0,0,0,7.092-2.762,7.072,7.072,0,0,0,2.921-3.4l-1.53,9.506-.139.385H1036.4q-6.122-.386-15.437-.385h-8q-4.521,0-10.36.128,4.449-.641,4.45-6.551V212.2h-.139q0-5.907-4.451-6.551v-.128h15.855v.128a4.546,4.546,0,0,0-3.2,2.248q-1.115,1.863-1.252,6.23Z"/><path class="cls-7" d="M1060.32,253.3q4.449-.642,4.451-6.552l.139-33.654v-.129q0-5.781-4.451-6.551,13.488-.386,22.53-.385,13.35,0,21.556,6.037a19.805,19.805,0,0,1,8.344,16.827q0,12.717-8.9,19.011-8.207,5.91-21.416,5.524h-7.093Q1069.916,253.431,1060.32,253.3ZM1072,244.568q0,3.468,2.017,4.624t8,1.156q22.807,0,22.808-20.553,0-20.809-23.225-20.809h-5.424q-4.171.386-4.172,2.312Z"/><path class="cls-7" d="M1243.474,205.775q-.141,3.468-.139,6.358v5.331h-.417a30.923,30.923,0,0,0-5.98-6.551q-3.062-2.053-10.709-2.055h-2.92q-1.392.129-1.669.642c-.094.086-.139.3-.139.642v36.1a5.425,5.425,0,0,0,1.112,3.468,8.9,8.9,0,0,0,4.729,2.954l.139.129a3.964,3.964,0,0,1-1.947.257q-10.293-.386-15.854,0a2.282,2.282,0,0,1-1.53-.386,7.279,7.279,0,0,0,4.52-1.734,5.319,5.319,0,0,0,2.016-3.789v-37a1.236,1.236,0,0,0-.834-1.156h-4.172q-7.65,0-10.709,2.055a30.842,30.842,0,0,0-5.98,6.551h-.417v-5.33q0-2.89-.139-6.359l21.834.129Z"/><path class="cls-7" d="M1265.586,253.046q3.613-.642,4.172-5.139v-.385c.091-.084.139-.427.139-1.028V212.84q0-5.781-4.451-6.552l19.887-.256a20.773,20.773,0,0,1,10.431,2.569,9.14,9.14,0,0,1,4.728,8.349q0,7.322-10.013,12.46a2.453,2.453,0,0,0-1.391.642q15.438,20.81,29.9,22.608l2.781.386-12.8.128q-7.789,0-13.628-6.294-8.344-9.761-13.49-15.543a27.149,27.149,0,0,0-5.285.385l.139,14.772q0,5.781,4.45,6.552Zm26.979-35.582q0-4.75-2.642-6.808-2.784-2.183-8.344-2.184-4.59,0-4.729,1.285v.77l-.278,17.855h3.2q6.675,0,9.735-3.147A10.719,10.719,0,0,0,1292.565,217.464Z"/><path class="cls-7" d="M1381.012,205.389l13.212-.128v.128q-4.312.645-4.311,6.551v20.81q.695,10.019-4.868,15.286-5.7,5.4-16.549,5.4-22.811,0-22.808-19.782V211.94q0-5.907-4.45-6.551v-.128h15.854a4.542,4.542,0,0,0-3.2,2.248q-1.116,1.863-1.252,6.1v18.755q0,9.248,4.033,13.423t13.212,4.175q15.713,0,15.715-16.571l-.14-21.452Q1385.462,206.16,1381.012,205.389Z"/><path class="cls-7" d="M1446.1,233.007a10.9,10.9,0,0,1,3.755,7.45,10.648,10.648,0,0,1-.209,3.083,8.374,8.374,0,0,1-1.46,3.34,17.151,17.151,0,0,1-2.642,3.083,8.217,8.217,0,0,1-2.642,1.8q-4.87,2.571-12.517,1.927-9.6-.771-12.238-3.468v-9.377c.091.086.139.15.139.192s.046.109.139.193a22.49,22.49,0,0,0,6.119,6.808,15.508,15.508,0,0,0,7.51,2.569q8.064.645,10.43-3.468a2.142,2.142,0,0,1,.418-.9,20.843,20.843,0,0,0,.556-2.7,7.222,7.222,0,0,0-2.086-5.524,53.848,53.848,0,0,0-9.179-6.422q-8.9-5.267-11.543-8.093a10.537,10.537,0,0,1,2.086-16.313q4.726-3.084,11.821-2.569a37.037,37.037,0,0,1,8.9,1.8q3.755,1.415,3.477,2.569v2.376q0,2.12.139,5.845.554,1.029-1.669-2.055a18.341,18.341,0,0,0-4.868-5.01,14.38,14.38,0,0,0-7.37-2.312,10.96,10.96,0,0,0-6.537,1.284,5.493,5.493,0,0,0-2.642,4.753,6.413,6.413,0,0,0,1.947,5.4q1.946,2.185,7.927,5.524,4.449,2.442,7.51,4.5A32.344,32.344,0,0,1,1446.1,233.007Z"/><path class="cls-7" d="M1521.887,205.775q-.139,3.468-.139,6.358v5.331h-.417a30.923,30.923,0,0,0-5.98-6.551q-3.062-2.053-10.709-2.055h-2.92q-1.392.129-1.669.642c-.094.086-.139.3-.139.642v36.1a5.425,5.425,0,0,0,1.112,3.468,8.9,8.9,0,0,0,4.729,2.954l.139.129a3.964,3.964,0,0,1-1.947.257q-10.293-.386-15.854,0a2.282,2.282,0,0,1-1.53-.386,7.279,7.279,0,0,0,4.52-1.734,5.316,5.316,0,0,0,2.016-3.789v-37a1.236,1.236,0,0,0-.834-1.156h-4.172q-7.65,0-10.709,2.055a30.842,30.842,0,0,0-5.98,6.551h-.417v-5.33q0-2.89-.139-6.359l21.834.129Z"/><path class="cls-7" d="M1608.248,253.046h-9.6v-.129a4.194,4.194,0,0,0,2.851-1.606q1.044-1.349,2.156-2.761,1.251-1.413,5.424-9.763,2.223-4.365,3.824-7.643t2.712-5.716q5.841-13.1,10.013-23.507,5.283,11.691,10.5,22.8t10.5,21.772a12.485,12.485,0,0,0,3.059,4.561,7.108,7.108,0,0,0,3.894,1.862v.257h-12.238q-1.809-4.11-3.129-7.322t-2.3-5.523h-22.668Zm26.145-16.057q-.14-.256-2.572-5.716t-7.3-16.25l-10.013,22.48h20.165Z"/><path class="cls-7" d="M1724.233,212.069l.139,26.076q0,4.113.069,7.322t.209,5.78a2.382,2.382,0,0,1-.557,1.8h-.834q-3.618-3.339-13.629-12.139t-26.562-23.058l-.139,22.351v5.524q0,5.91,4.311,6.551v.128h-13.212v-.128q4.449-.642,4.45-6.551V239.3l.279-26.975v-4.175a25.025,25.025,0,0,0-.14-2.89h.14l39.774,33.526c.462.43.786.642.973.642s.278-.3.278-.9V212.069q0-5.781-4.45-6.551h13.212Q1724.232,206.289,1724.233,212.069Z"/><path class="cls-7" d="M1752.6,253.3q4.45-.642,4.451-6.552l.139-33.654v-.129q0-5.781-4.45-6.551,13.486-.386,22.529-.385,13.352,0,21.556,6.037a19.8,19.8,0,0,1,8.344,16.827q0,12.717-8.9,19.011-8.208,5.91-21.417,5.524h-7.093Q1762.2,253.431,1752.6,253.3Zm11.682-8.735q0,3.468,2.017,4.624t8,1.156q22.807,0,22.808-20.553,0-20.809-23.225-20.809h-5.424q-4.171.386-4.172,2.312Z"/><path class="cls-7" d="M1897.65,245.081q0,3.342,4.172,4.111.695.129,7.231.128a31.126,31.126,0,0,0,5.007-.385,24.913,24.913,0,0,0,7.093-2.762,7.07,7.07,0,0,0,2.92-3.4l-1.53,9.506-.139.385h-2.225q-6.122-.386-15.437-.385h-8q-4.521,0-10.361.128,4.449-.641,4.45-6.551V212.2h-.139q0-5.907-4.45-6.551v-.128H1902.1v.128a4.546,4.546,0,0,0-3.2,2.248q-1.115,1.863-1.251,6.23Z"/><path class="cls-7" d="M1999.866,230.823a22.135,22.135,0,0,1-8.344,17.6,28.723,28.723,0,0,1-19.609,7.065q-12.1,0-19.887-6.679a21.937,21.937,0,0,1-8.205-17.727,22.514,22.514,0,0,1,8.344-17.727q8.064-7.062,19.748-7.065,11.959,0,19.887,6.937A22.205,22.205,0,0,1,1999.866,230.823Zm-7.927,1.285q0-10.406-6.258-16.442-5.841-5.907-15.576-5.909a18.022,18.022,0,0,0-7.371,1.477,17.753,17.753,0,0,0-5.771,4.046,18.352,18.352,0,0,0-3.825,6.294,22.977,22.977,0,0,0-1.39,8.093q0,10.664,5.98,16.7,5.841,5.781,15.854,5.78a17.248,17.248,0,0,0,13.211-5.523Q1991.937,241.1,1991.939,232.108Z"/><path class="cls-7" d="M2042,252.4q4.31-.641,4.312-6.551V234.677a96.068,96.068,0,0,0-12.239-17.213q-3.477-3.853-5.7-6.294t-3.337-3.469a7.653,7.653,0,0,0-4.868-2.183q.417-.386,2.086-.129h10.709l4.172,6.166q.554.771,1.391,1.8l11.542,15.672c.279.429.509.642.7.642.091,0,.369-.213.834-.642q1.669-2.313,5.772-7.707t12.307-15.672l.279-.128h6.814v.128a2.269,2.269,0,0,0-1.182.386c-.417.256-.813.513-1.182.77a20.009,20.009,0,0,0-2.851,2.634q-1.461,1.607-3.129,3.661-3.478,4.111-5.563,6.679t-2.921,3.6q-3.755,4.754-6.814,9.377l.139,13.1q0,5.91,4.45,6.551Z"/><path class="cls-7" d="M2104.307,253.046h-9.6v-.129a4.2,4.2,0,0,0,2.851-1.606q1.043-1.349,2.155-2.761,1.253-1.413,5.424-9.763,2.223-4.365,3.824-7.643t2.712-5.716q5.841-13.1,10.013-23.507,5.285,11.691,10.5,22.8t10.5,21.772a12.5,12.5,0,0,0,3.059,4.561,7.111,7.111,0,0,0,3.894,1.862v.257h-12.238q-1.809-4.11-3.129-7.322t-2.294-5.523h-22.669Zm26.145-16.057q-.141-.256-2.573-5.716t-7.3-16.25l-10.013,22.48h20.165Z"/><path class="cls-7" d="M2181.073,245.081q0,3.342,4.172,4.111.695.129,7.232.128a31.122,31.122,0,0,0,5.006-.385,24.9,24.9,0,0,0,7.093-2.762,7.064,7.064,0,0,0,2.92-3.4l-1.529,9.506-.139.385H2203.6q-6.122-.386-15.437-.385h-8q-4.521,0-10.361.128,4.45-.641,4.451-6.551V212.2h-.139q0-5.907-4.451-6.551v-.128h15.854v.128a4.547,4.547,0,0,0-3.2,2.248q-1.114,1.863-1.252,6.23Z"/><path class="cls-7" d="M2276.475,205.775q-.141,3.468-.139,6.358v5.331h-.417a30.95,30.95,0,0,0-5.98-6.551q-3.061-2.053-10.709-2.055h-2.92q-1.392.129-1.669.642c-.094.086-.139.3-.139.642v36.1a5.425,5.425,0,0,0,1.112,3.468,8.9,8.9,0,0,0,4.729,2.954l.139.129a3.964,3.964,0,0,1-1.947.257q-10.293-.386-15.854,0a2.28,2.28,0,0,1-1.53-.386,7.279,7.279,0,0,0,4.52-1.734,5.319,5.319,0,0,0,2.016-3.789v-37a1.236,1.236,0,0,0-.834-1.156h-4.172q-7.65,0-10.709,2.055a30.842,30.842,0,0,0-5.98,6.551h-.417v-5.33q0-2.89-.139-6.359l21.834.129Z"/><path class="cls-7" d="M2316.8,252.4q4.308-.641,4.311-6.551V234.677a96.063,96.063,0,0,0-12.238-17.213q-3.478-3.853-5.7-6.294t-3.338-3.469a7.648,7.648,0,0,0-4.867-2.183q.417-.386,2.086-.129h10.708l4.172,6.166q.555.771,1.391,1.8l11.543,15.672c.278.429.508.642.695.642.091,0,.37-.213.834-.642q1.669-2.313,5.772-7.707t12.308-15.672l.278-.128h6.814v.128a2.272,2.272,0,0,0-1.182.386q-.625.384-1.182.77a20.063,20.063,0,0,0-2.851,2.634q-1.459,1.607-3.129,3.661-3.477,4.111-5.563,6.679t-2.92,3.6q-3.754,4.754-6.815,9.377l.14,13.1q0,5.91,4.45,6.551Z"/></svg>