<svg xmlns="http://www.w3.org/2000/svg" viewBox="0 0 621.333 571.75"><defs><style>.cls-1{fill:#70c600;}.cls-2{fill:#f3eee9;}.cls-3,.cls-4{fill:none;stroke:#231f20;stroke-width:3px;}.cls-3{stroke-miterlimit:10;}.cls-4{stroke-linecap:round;stroke-linejoin:round;}.cls-5{fill:#231f20;}</style></defs><g id="Layer_2" data-name="Layer 2"><rect class="cls-1" x="166.765" y="149.151" width="194" height="105.538" rx="8.822"/><rect class="cls-1" y="217.036" width="206.849" height="133.599" rx="8.822"/><rect class="cls-1" x="392.583" y="181.006" width="228.75" height="170.108" rx="8.822"/><rect class="cls-1" x="317.062" y="392.869" width="248.964" height="149.298" rx="8.822"/><circle class="cls-2" cx="167.629" cy="423.292" r="141.25"/><path class="cls-3" d="M271.237,138.25H344.75a7,7,0,0,1,7,7V239a7,7,0,0,1-7,7H164.25a7,7,0,0,1-7-7V145.25a7,7,0,0,1,7-7h43.926"/><path class="cls-3" d="M244.75,246,203,123s-1-.75,2-2.75,38.25-20,39.75-19S346.779,245.7,346.779,245.7"/><path class="cls-4" d="M238.779,103.317A27.816,27.816,0,0,1,232,93.25C230,87.5,231.5,82,225,66s-27.471-21.129-27.471-21.129l.471-9.7"/><path class="cls-4" d="M206.849,119.179S202.5,111.5,200,110.75s-42-17.25-42.75-19.5-11.75-55-9.5-55.5S161.4,27.167,161.4,27.167"/><path class="cls-4" d="M167.5,61.25s-7-34.083-6-37.083,8.667-6.56,14.167-4.06A14.865,14.865,0,0,1,183,26.75"/><path class="cls-4" d="M180.5,58.25s-.25-35,4.25-37.25,17.25-1.25,20,4.25S210.5,41,210.5,41l-2.93,8.369"/><path class="cls-4" d="M150.274,56.905,120.25,113.75s.5,4.233,3.75,5.429a9.159,9.159,0,0,0,6.625-.554l22.928-44.636"/><polyline class="cls-4" points="174.75 18.75 183 5.25 193.75 1.5 193.75 10.125 187.896 20.107"/><line class="cls-3" x1="157.25" y1="157.5" x2="214.71" y2="157.5"/><line class="cls-3" x1="284.816" y1="157.5" x2="351.75" y2="157.5"/><path class="cls-3" d="M544.5,192.125h53.479A8.021,8.021,0,0,1,606,200.146V336.5H385V200.146a8.021,8.021,0,0,1,8.021-8.021h66.788"/><line class="cls-3" x1="438.48" y1="326.185" x2="425.25" y2="336.5"/><line class="cls-3" x1="510.793" y1="269.805" x2="469.076" y2="302.331"/><path class="cls-3" d="M385,248.5l121.362-91.836a6.571,6.571,0,0,1,9.023,1.067l49.8,60.392a6.57,6.57,0,0,1-.909,9.266l-1.044,1.53"/><path class="cls-3" d="M542.5,278.5l-5.25-5.25s-10.25,1-15,0-16.5-7-19.5-7.75-3-6.5,6.75-7.5,13.5,0,13.5,0l-11.5-22.5S507,234,499,228.75s-11-10.25-6-11.5,23.5,2.25,26,3.5,15.25,15.75,15.25,15.75"/><path class="cls-3" d="M527.25,209s2.25-3,8-3.25S554,222.25,554,222.25"/><path class="cls-3" d="M499.25,215.75s17.5-10.75,23.5-10,21.75,22,21.75,22"/><path class="cls-3" d="M519,220.75s3.5-1,6.75-1.75"/><path class="cls-3" d="M544.5,211.609s14.75,3.891,17.25,10.641,4,32.75,4,32.75l2.75,3.75"/><polyline class="cls-3" points="606 273.75 573 255 538 282.75 582.75 336.5"/><path class="cls-3" d="M472.75,314.5s-5.457-14.25-4.728-22,5.271-15.5,0-15.5-8.272,4.75-11.272,10.25a41.068,41.068,0,0,0-3.75,8.5"/><path class="cls-3" d="M455.75,299.25s-10.75-16.5-14-20.75-5-22.75-10.75-23.5-6,1.25-5.75,7.25,6.5,27.25,8.25,33.5"/><path class="cls-3" d="M425.25,303.153s-7.25-18.3-7.5-26.1,1.25-11.3,3.75-11.3a6.282,6.282,0,0,1,3.75,1"/><path class="cls-3" d="M449.75,332s-12.5-7-19-9S417.5,305,416,297.75s1.723-17.25,1.723-17.25"/><polyline class="cls-3" points="444 336.5 477.25 311.25 509.75 336.5"/><path class="cls-3" d="M385,262.25l91.708-70.375a2.469,2.469,0,0,1,3.32.288l5.152,5.607a2.468,2.468,0,0,1-.309,3.624L385,278.5"/><path class="cls-3" d="M385,288.5l101.428-81.087a4.886,4.886,0,0,1,6.518.549l8.818,9.406"/><line class="cls-3" x1="425.188" y1="318.307" x2="401.75" y2="336.5"/><polyline class="cls-3" points="495.5 270.625 489.444 263.625 470.53 279.818"/><line class="cls-3" x1="491.483" y1="217.769" x2="436.125" y2="261.795"/><line class="cls-3" x1="417.75" y1="277.05" x2="385" y2="303.153"/><polyline class="cls-3" points="480.686 226.355 489.934 236.25 484.25 241.75 490.556 248.5 507.5 234.932"/><line class="cls-3" x1="440.917" y1="277.05" x2="484.25" y2="241.75"/><line class="cls-3" x1="490.556" y1="248.5" x2="447.026" y2="286.068"/><line class="cls-3" x1="468.791" y1="294.75" x2="502.75" y2="265.5"/><line class="cls-3" x1="509.5" y1="258" x2="519" y2="250.174"/><line class="cls-3" x1="489.444" y1="263.625" x2="514.25" y2="243.5"/><line class="cls-3" x1="430.75" y1="323" x2="415.602" y2="336.5"/><line class="cls-3" x1="416" y1="297.75" x2="385" y2="321.5"/><line class="cls-3" x1="386.31" y1="332.865" x2="417.75" y2="308.75"/><path class="cls-5" d="M503.353,253.526A24.453,24.453,0,0,0,507.8,258.7a1,1,0,1,0,1.414-1.415,23.362,23.362,0,0,1-2.294-2.3c-.172-.2-.342-.4-.507-.606-.083-.1-.164-.206-.246-.31-.1-.127.138.184-.032-.041l-.105-.14q-.5-.669-.951-1.371a1,1,0,0,0-1.727,1.009Z"/><path class="cls-5" d="M488.4,251.607a35.951,35.951,0,0,0,7.891,6.427,1,1,0,0,0,1.009-1.727,34.029,34.029,0,0,1-7.485-6.115,1,1,0,0,0-1.415,1.415Z"/><path class="cls-5" d="M504.153,239a59.85,59.85,0,0,0,5.148,7.2,1.007,1.007,0,0,0,1.414,0,1.02,1.02,0,0,0,0-1.414,56.289,56.289,0,0,1-4.835-6.8,1,1,0,1,0-1.727,1.01Z"/><path class="cls-5" d="M473.731,263.275A56.81,56.81,0,0,0,481,268.859a1,1,0,1,0,1.01-1.727,53.534,53.534,0,0,1-6.863-5.271,1.022,1.022,0,0,0-1.414,0,1.01,1.01,0,0,0,0,1.414Z"/><path class="cls-5" d="M462.532,272.967a21.233,21.233,0,0,0,5.241,4.1,1,1,0,0,0,1.01-1.727q-.693-.384-1.356-.818c-.22-.146-.438-.295-.652-.449-.108-.077-.214-.155-.32-.234l-.14-.106c-.131-.1.179.143-.042-.032a20.7,20.7,0,0,1-2.326-2.144,1.008,1.008,0,0,0-1.415,0,1.022,1.022,0,0,0,0,1.414Z"/><path class="cls-5" d="M453.126,281.325a10.751,10.751,0,0,0,4.631,5.517,1,1,0,1,0,1.01-1.727q-.348-.2-.678-.43c-.105-.073-.207-.149-.309-.225s.137.112-.009-.008l-.177-.146a9.733,9.733,0,0,1-1.111-1.1c-.082-.1-.162-.2-.242-.3s.1.143-.007-.01c-.037-.052-.076-.1-.113-.155-.155-.217-.3-.442-.439-.672s-.252-.443-.364-.672c-.062-.126-.119-.254-.177-.381s.088.224,0-.008c-.028-.072-.056-.143-.083-.214a1.023,1.023,0,0,0-1.23-.7,1.012,1.012,0,0,0-.7,1.23Z"/><path class="cls-5" d="M461.143,261.291c2.489,2.058,4.756,4.373,7.225,6.454a1.028,1.028,0,0,0,1.415,0,1.008,1.008,0,0,0,0-1.414c-2.47-2.081-4.737-4.4-7.226-6.454a1.028,1.028,0,0,0-1.414,0,1.006,1.006,0,0,0,0,1.414Z"/><path class="cls-5" d="M474.511,252.236c1.962,1.691,3.716,3.588,5.581,5.379a1,1,0,0,0,1.415-1.414c-1.866-1.791-3.62-3.688-5.582-5.379a1,1,0,0,0-1.414,1.414Z"/><path class="cls-5" d="M450.25,271.75a1,1,0,0,0,0-2,1,1,0,0,0,0,2Z"/><path class="cls-5" d="M449.082,270.089a29.1,29.1,0,0,0,7.566,7.418,1.011,1.011,0,0,0,1.369-.358,1.021,1.021,0,0,0-.359-1.369,26.651,26.651,0,0,1-6.849-6.7,1.026,1.026,0,0,0-1.368-.359,1.009,1.009,0,0,0-.359,1.368Z"/><path class="cls-5" d="M408.349,305.914l4.149,5.328a1,1,0,0,0,1.415,0,1.032,1.032,0,0,0,0-1.414l-4.15-5.328a1,1,0,0,0-1.414,0,1.03,1.03,0,0,0,0,1.414Z"/><path class="cls-5" d="M394.676,314.233a14.146,14.146,0,0,0,8.053,6.5,1,1,0,1,0,.531-1.928,12.1,12.1,0,0,1-6.857-5.581,1,1,0,0,0-1.727,1.01Z"/><path class="cls-5" d="M385.57,325.053a11.326,11.326,0,0,0,2.929,2.805,1.008,1.008,0,0,0,1.368-.359,1.022,1.022,0,0,0-.359-1.368c-.208-.137-.412-.282-.61-.434l.2.157a10.073,10.073,0,0,1-1.8-1.8l.157.2c-.054-.07-.107-.14-.159-.212a1.086,1.086,0,0,0-.6-.459,1.023,1.023,0,0,0-.771.1,1.007,1.007,0,0,0-.459.6.975.975,0,0,0,.1.771Z"/><path class="cls-5" d="M396.25,326.5a1,1,0,0,0,0-2,1,1,0,0,0,0,2Z"/><path class="cls-5" d="M397.175,324.858l9.113,7.105a1.032,1.032,0,0,0,1.414,0,1,1,0,0,0,0-1.414l-9.113-7.1a1.032,1.032,0,0,0-1.414,0,1.006,1.006,0,0,0,0,1.414Z"/><path class="cls-5" d="M411.381,315.605l5.514,6.008a1.006,1.006,0,0,0,1.414,0,1.021,1.021,0,0,0,0-1.414l-5.513-6.008a1.009,1.009,0,0,0-1.415,0,1.022,1.022,0,0,0,0,1.414Z"/><path class="cls-5" d="M459.244,244.573a75.548,75.548,0,0,0,8.327,10.221c.883.941,2.295-.476,1.414-1.414a72.578,72.578,0,0,1-8.014-9.817c-.7-1.074-2.433-.073-1.727,1.01Z"/><path class="cls-5" d="M445.728,256.82c3.011,2.969,5.612,6.36,8.781,9.169.961.851,2.38-.559,1.415-1.414-3.169-2.809-5.771-6.2-8.782-9.169-.917-.905-2.332.509-1.414,1.414Z"/><path class="cls-5" d="M437.12,266.145c.118.088-.2-.174-.061-.046.04.036.082.069.123.1.094.083.186.169.277.256.228.217.448.443.666.67.559.586,1.1,1.188,1.641,1.791,1.15,1.287,2.278,2.595,3.465,3.848a11.864,11.864,0,0,0,1.514,1.408,1.007,1.007,0,0,0,1.368-.359,1.023,1.023,0,0,0-.358-1.368c-.118-.088.2.175.061.046-.04-.036-.082-.069-.123-.1-.094-.083-.186-.169-.277-.255-.228-.218-.448-.443-.666-.671-.559-.586-1.1-1.188-1.641-1.791-1.15-1.286-2.278-2.595-3.465-3.848a11.864,11.864,0,0,0-1.514-1.408,1.007,1.007,0,0,0-1.368.359,1.023,1.023,0,0,0,.358,1.368Z"/><path class="cls-5" d="M406.7,286.941l-.023.021.973-.257-.026,0,.441.257.208.353v.532l.007-.034-.257.441.025-.024-.441.257.065-.012h-.532l-.261-.15.068.068c.041.047.091.09.136.134l.306.3.577.571,1.155,1.142,2.31,2.284a1,1,0,1,0,1.414-1.415l-3.261-3.224-.815-.806a2.545,2.545,0,0,0-1.1-.835,1.079,1.079,0,0,0-.7,2.037,1.045,1.045,0,0,0,1.141-.224,1,1,0,0,0,0-1.414,1.024,1.024,0,0,0-1.414,0Z"/><path class="cls-5" d="M392.175,298.332q5.086,4.794,9.717,10.038c.854.966,2.264-.453,1.414-1.415q-4.626-5.238-9.717-10.037c-.936-.882-2.353.529-1.414,1.414Z"/><path class="cls-5" d="M465,225.427a26.261,26.261,0,0,0,7.711,7.247,1,1,0,1,0,1.009-1.727,23.908,23.908,0,0,1-6.994-6.53,1.028,1.028,0,0,0-1.368-.359,1.009,1.009,0,0,0-.358,1.369Z"/><path class="cls-5" d="M454.72,233.748c-.034,1.669,1.41,2.762,2.528,3.773l3.8,3.436a1.022,1.022,0,0,0,1.414,0,1.01,1.01,0,0,0,0-1.414l-3.511-3.179c-.529-.478-1.078-.94-1.579-1.447-.119-.121-.235-.246-.343-.377.066.081,0,0-.025-.037-.046-.069-.091-.136-.133-.208-.032-.056-.063-.112-.091-.171-.043-.09.016.095-.021-.072-.014-.062-.033-.122-.045-.185.035.2.01-.093.01-.119a1.008,1.008,0,0,0-1-1,1.019,1.019,0,0,0-1,1Z"/><path class="cls-5" d="M443.934,242.291c2.5,2.322,5.05,4.6,7.555,6.916a1.02,1.02,0,0,0,1.414,0,1.01,1.01,0,0,0,0-1.414c-2.5-2.32-5.052-4.595-7.555-6.917a1,1,0,0,0-1.414,1.415Z"/><path class="cls-5" d="M434.684,250.293a30.782,30.782,0,0,0,6.355,6.009,1,1,0,0,0,1.368-.359,1.026,1.026,0,0,0-.359-1.368,28.017,28.017,0,0,1-3.124-2.585,29.974,29.974,0,0,1-2.826-3.112,1,1,0,0,0-1.414,0,1.032,1.032,0,0,0,0,1.415Z"/><path class="cls-5" d="M412.788,266.512a7.31,7.31,0,0,0,3.492,5.792,1,1,0,1,0,1.01-1.727c-.106-.063-.211-.129-.313-.2-.04-.027-.081-.056-.121-.085-.007,0-.192-.149-.076-.055s-.049-.042-.072-.061c-.047-.039-.094-.08-.14-.121-.083-.074-.163-.15-.242-.228s-.172-.177-.254-.269c-.036-.04-.242-.229-.238-.284,0,.031.109.148.021.026l-.107-.151c-.07-.1-.138-.206-.2-.311a6.377,6.377,0,0,1-.332-.621c0-.01-.061-.135-.061-.135.048.114.057.137.03.068-.01-.022-.019-.045-.028-.068-.044-.116-.086-.232-.123-.349a6.175,6.175,0,0,1-.177-.68q-.018-.091-.033-.183l-.012-.073c-.011-.076-.008-.048.011.083a1.378,1.378,0,0,0-.033-.369,1,1,0,1,0-2,0Z"/><path class="cls-5" d="M402.818,275.831a15.343,15.343,0,0,0,5.881,8.1,1.008,1.008,0,0,0,1.368-.358,1.02,1.02,0,0,0-.358-1.368,13.216,13.216,0,0,1-4.962-6.9,1,1,0,1,0-1.929.532Z"/><path class="cls-5" d="M391.081,284.167l7.166,6.838a1,1,0,0,0,1.414-1.414l-7.166-6.838a1,1,0,0,0-1.414,1.414Z"/><path class="cls-5" d="M385.137,294.255a22.244,22.244,0,0,0,4.34,4.382,1.008,1.008,0,0,0,.771.1,1.021,1.021,0,0,0,.6-.46,1.007,1.007,0,0,0,.1-.77,1.172,1.172,0,0,0-.459-.6c-.187-.143.113.091,0,0l-.139-.11c-.093-.074-.185-.148-.276-.224-.173-.143-.344-.288-.513-.437q-.519-.457-1.006-.95t-.917-.99c-.155-.178-.307-.36-.455-.544-.067-.083-.133-.167-.2-.25s.117.155,0,0c-.043-.056-.086-.113-.128-.17a1.092,1.092,0,0,0-.6-.459,1.027,1.027,0,0,0-.771.1,1.011,1.011,0,0,0-.358,1.369Z"/><path class="cls-5" d="M467.744,201.516l5.408,4.562a1,1,0,0,0,1.414-1.415l-5.408-4.562a1,1,0,1,0-1.414,1.415Z"/><path class="cls-5" d="M457.371,208.115l6.452,7.064a1,1,0,0,0,1.414-1.414l-6.452-7.065a1,1,0,1,0-1.414,1.415Z"/><path class="cls-5" d="M446.3,214.949a1.168,1.168,0,0,0-1.116,1.448,2.829,2.829,0,0,0,1,1.37q1.341,1.318,2.738,2.58,2.794,2.523,5.794,4.8a1,1,0,0,0,1.368-.359,1.025,1.025,0,0,0-.359-1.368q-2.354-1.8-4.578-3.767-1.1-.968-2.163-1.97-.548-.516-1.087-1.041l-.536-.527c-.079-.078-.154-.163-.237-.236-.137-.153-.155-.16-.056-.023a.4.4,0,0,1,.079.395l-.459.6.048-.036-.505.136.073,0c1.283-.047,1.29-2.047,0-2Z"/><path class="cls-5" d="M432.788,227.712l7.28,7.219a1,1,0,0,0,1.415-1.414l-7.28-7.22a1,1,0,0,0-1.415,1.415Z"/><path class="cls-5" d="M420.048,235.2a37.237,37.237,0,0,1,7.339,7.553,1.027,1.027,0,0,0,1.368.359,1.007,1.007,0,0,0,.359-1.368,38.937,38.937,0,0,0-7.652-7.959,1.033,1.033,0,0,0-1.414,0,1.007,1.007,0,0,0,0,1.415Z"/><path class="cls-5" d="M409.3,242.735a3.063,3.063,0,0,0,1.042,2.793c.73.74,1.534,1.417,2.3,2.119l4.813,4.41a1.024,1.024,0,0,0,1.415,0,1.013,1.013,0,0,0,0-1.415l-4.327-3.962-2.132-1.954a8.916,8.916,0,0,1-.887-.862,1.685,1.685,0,0,1-.26-.4.39.39,0,0,1-.037-.2,1.025,1.025,0,0,0-.7-1.23,1.009,1.009,0,0,0-1.23.7Z"/><path class="cls-5" d="M398.384,253.1a75.186,75.186,0,0,0,7.988,7.764,1.029,1.029,0,0,0,1.415,0,1.008,1.008,0,0,0,0-1.414,75.1,75.1,0,0,1-7.989-7.764,1,1,0,0,0-1.414,1.414Z"/><path class="cls-5" d="M389.114,260.15a61.872,61.872,0,0,0,7.383,7.61,1.026,1.026,0,0,0,1.415,0,1.01,1.01,0,0,0,0-1.414,61.745,61.745,0,0,1-7.384-7.611,1.008,1.008,0,0,0-1.414,0,1.024,1.024,0,0,0,0,1.415Z"/><path class="cls-5" d="M385,270.7a12.448,12.448,0,0,0,3.253,4.056,1.084,1.084,0,0,0,.707.293,1,1,0,0,0,.707-1.708,11.808,11.808,0,0,1-1.735-1.735l-.08-.1c-.138-.172.094.127.017.023-.057-.078-.116-.155-.173-.234q-.18-.249-.346-.508a11.711,11.711,0,0,1-.623-1.1,1.008,1.008,0,0,0-1.369-.358A1.023,1.023,0,0,0,385,270.7Z"/><path class="cls-3" d="M505.766,212.029l-7.251-7.925a4.175,4.175,0,0,1,.477-6.081l20.2-16.106a4.174,4.174,0,0,1,5.8.584l26.758,31.971"/><path class="cls-3" d="M189.78,339.5h19.15a5.78,5.78,0,0,0,5.78-5.78V246"/><path class="cls-3" d="M157.25,210.94H23.447a5.78,5.78,0,0,0-5.78,5.78v117a5.78,5.78,0,0,0,5.78,5.78H129.433"/><path class="cls-4" d="M202.84,355.235s-32.26-37.278-43.09-50.028c-6.094-7.175-22-24.147-39.5-5.957C110.03,309.874,97,339.5,97,339.5"/><path class="cls-4" d="M126,336.5l62.25,65.75s5.863,5.909,11.25,3.25c7.665-3.783,57.487-36.992,57.487-36.992L239.5,339.5,183,363.75"/><path class="cls-4" d="M242.2,343.981S246.25,328,254.5,323s21.667-14.25,21.667-14.25"/><path class="cls-4" d="M276.167,322.728s23.583-6.272,29.083-9,9-.613,1.75,7.08-20.14,12.057-20.14,12.057"/><path class="cls-4" d="M307,320.808s1.431-1.615,8.25-4.06,7.75,8,5.25,14.508S285.5,359,285.5,359l-29.908,7.194"/><line class="cls-4" x1="290.375" y1="338.833" x2="320.133" y2="319.768"/><line class="cls-4" x1="294.125" y1="346.5" x2="321.703" y2="325.771"/><polyline class="cls-4" points="280.685 321.5 271.333 289.81 330.167 275.565 355.5 360.667 299.167 376.5 292.184 354.513"/><path class="cls-5" d="M311.571,283.113l-.88-7.45a1.921,1.921,0,0,1,1.373-2.07l10.275-2.969a1.919,1.919,0,0,1,2.227.941l3.638,6.819a1.919,1.919,0,0,1-1.182,2.754l-13.033,3.6A1.92,1.92,0,0,1,311.571,283.113Z"/><path class="cls-3" d="M314.125,273.312l-1.375-3.12s-5.672.808-4.836-1.692,13.227-7,12.219-4.188a9.771,9.771,0,0,1-2.508,4.054l1.93,3.753"/><path class="cls-3" d="M354.662,357.851l3.063-1.069a1.6,1.6,0,0,0,.976-2.051L330.609,277.05,360.641,348.9a1.6,1.6,0,0,1-.9,2.107l-2.1.806"/><line class="cls-4" x1="284.816" y1="305.207" x2="325" y2="294.75"/><line class="cls-4" x1="287.141" y1="313.609" x2="308.394" y2="308.079"/><line class="cls-4" x1="302.156" y1="356.165" x2="323.408" y2="350.635"/><line class="cls-4" x1="303.333" y1="347" x2="321.304" y2="341.969"/><line class="cls-4" x1="314.667" y1="305.918" x2="327.519" y2="303.153"/><line class="cls-4" x1="317.756" y1="313.165" x2="330.609" y2="310.4"/><line class="cls-4" x1="322.417" y1="321.5" x2="332.986" y2="318.735"/><line class="cls-4" x1="324.182" y1="330.169" x2="334.752" y2="327.403"/><line class="cls-4" x1="327.519" y1="340.126" x2="338.089" y2="337.361"/><line class="cls-4" x1="329.285" y1="348.795" x2="339.854" y2="346.029"/><path class="cls-3" d="M385,336.5H606a0,0,0,0,1,0,0v15.25a7.25,7.25,0,0,1-7.25,7.25H392.25a7.25,7.25,0,0,1-7.25-7.25V336.5A0,0,0,0,1,385,336.5Z"/><path class="cls-3" d="M325.309,530.5H321.8a10.7,10.7,0,0,1-10.7-10.7V396.7A10.7,10.7,0,0,1,321.8,386H566.3A10.7,10.7,0,0,1,577,396.7V519.8a10.7,10.7,0,0,1-10.7,10.7H432.021"/><path class="cls-3" d="M497.11,511.25h-5.732c-5.143,0-9.312-5.82-9.312-13s4.169-13,9.312-13h5.732"/><ellipse class="cls-3" cx="497.11" cy="498.25" rx="9.313" ry="13"/><polyline class="cls-3" points="506.192 495.398 536.191 505.75 536.191 531.5"/><polyline class="cls-3" points="486.052 487.596 468.191 487.596 468.191 530.5"/><line class="cls-3" x1="432.467" y1="487.596" x2="468.191" y2="487.596"/><path class="cls-3" d="M480.941,487.6l-8.853-13.433a13.15,13.15,0,0,0-10.979-5.913H434.4"/><path class="cls-3" d="M459.316,468.25s-3.875-23.75-13.375-21.75-14.25,21.148-14,66.949-.009,56.8-.009,56.8H326.5s-5.108-78.968,5.877-104.769a94.226,94.226,0,0,1,5.755-11.447,14.966,14.966,0,0,1,12.857-7.249h94.957"/><path class="cls-3" d="M562.882,482.738l-17.715,7.429s-15-13.167-18.834-13a37.953,37.953,0,0,0-10.833,11.5c-4.333,7.333-4.718,8.315-4.718,8.315"/><path class="cls-3" d="M518.5,499.646l9.5-7.979s2.579,14.339,14.75,14.339c5.875,0,9.627-5.021,9.627-5.021l15.76-.151"/><path class="cls-3" d="M523.795,479.081s-4.795-4.956-8.92-3.206-11.79,12.407-11.79,12.407"/><path class="cls-3" d="M497.11,485.25s3.9-11.625,9.082-12.125a11.956,11.956,0,0,1,8.683,2.75"/><path class="cls-3" d="M489.588,485.25s2.287-11.73,5.037-12.177,8.46,1.665,8.46,1.665"/><path class="cls-3" d="M470.648,472.354s3.22-5.854,6.473-4.6,12.467,7.751,12.467,7.751L492,476.667"/><polyline class="cls-3" points="489 483.75 479.375 477.923 475.746 479.713"/><line class="cls-3" x1="518.501" y1="475.501" x2="536.191" y2="467.125"/><path class="cls-4" d="M534,465.625s3.375,1.125,8.625,9.125,5.126,13.532,5.126,13.532"/><path class="cls-4" d="M529.875,470c-.182-.76-1.443-5.385,0-6.885S576.167,437.5,576.167,437.5"/><path class="cls-4" d="M562.125,500.892s1.5,9.858,3.625,12.557,3.1-9.558,1.8-18.051c-1.551-10.148-5.426-13.506-5.426-13.506l14.042-6.391"/><line class="cls-4" x1="577" y1="515" x2="566.025" y2="513.712"/><line class="cls-4" x1="343.667" y1="465.625" x2="381.667" y2="465.625"/><line class="cls-4" x1="395.371" y1="465.625" x2="419.5" y2="465.625"/><line class="cls-4" x1="339.854" y1="477.923" x2="377.854" y2="477.923"/><line class="cls-4" x1="391.559" y1="477.923" x2="415.688" y2="477.923"/><line class="cls-4" x1="338.521" y1="490.221" x2="376.521" y2="490.221"/><line class="cls-4" x1="390.226" y1="490.221" x2="414.354" y2="490.221"/><line class="cls-4" x1="337.188" y1="502.518" x2="375.188" y2="502.518"/><line class="cls-4" x1="388.892" y1="502.518" x2="413.021" y2="502.518"/><line class="cls-4" x1="337.271" y1="516.833" x2="375.271" y2="516.833"/><line class="cls-4" x1="388.976" y1="516.833" x2="413.104" y2="516.833"/><line class="cls-4" x1="337.354" y1="531.148" x2="375.354" y2="531.148"/><line class="cls-4" x1="389.059" y1="531.148" x2="413.188" y2="531.148"/><line class="cls-4" x1="337.271" y1="546.833" x2="375.271" y2="546.833"/><line class="cls-4" x1="388.976" y1="546.833" x2="413.104" y2="546.833"/></g></svg>