<svg id="Layer_3" data-name="Layer 3" xmlns="http://www.w3.org/2000/svg" viewBox="0 0 450 382.243"><defs><style>.cls-1{fill:#f3eee9;}.cls-2,.cls-3{fill:none;stroke-width:3px;}.cls-2{stroke:#231f20;stroke-linecap:round;stroke-linejoin:round;}.cls-3{stroke:#70c600;stroke-miterlimit:10;}</style></defs><path class="cls-1" d="M386.513,382.243c0-.406.015-.81.015-1.216a160.931,160.931,0,1,0-321.861,0c0,.406.012.81.015,1.216Z"/><line class="cls-2" x1="1.5" y1="380.743" x2="448.5" y2="380.743"/><polyline class="cls-2" points="116.25 380.743 113.75 358.493 135 358.493 132.5 380.743"/><polyline class="cls-2" points="113.75 358.493 180 339.493 196.25 380.743"/><polyline class="cls-2" points="306.25 360.118 281.25 360.118 289.75 380.743"/><path class="cls-2" d="M302.25,380.743l4-20.625-75-20.625L232.4,325.5a3.934,3.934,0,0,0-3.921-4.257H181.634a3.934,3.934,0,0,0-3.882,4.573L180,339.493l27.5,5,23.75-5L218,380.743"/><line class="cls-2" x1="196.25" y1="321.243" x2="196.25" y2="275.981"/><line class="cls-2" x1="213.583" y1="321.243" x2="213.583" y2="284.243"/><ellipse class="cls-2" cx="223.069" cy="210.31" rx="49.368" ry="109.73" transform="translate(-66.358 311.414) rotate(-62.569)"/><path class="cls-2" d="M125.676,159.76S103,234.91,196.25,275.981c75.277,33.156,116.032-6.148,116.032-6.148"/><path class="cls-2" d="M211.333,225.576l43.334-94s4.333-1.666,11,1.334,6.387,7.349,6.387,7.349L265,159.76s-7.106.317-11.413-2.016-8.572-5.231-8.572-5.231"/><path class="cls-2" d="M172.3,143.713s2.7,52.53,39.032,81.863,106.4,39.383,106.4,39.383"/><path class="cls-2" d="M231.762,159.76s-19.15,32.483-20.429,65.816,2.25,34.934,2.25,34.934"/><path class="cls-2" d="M129.553,192.816s32.114,24.094,81.78,32.76S313.9,223.3,313.9,223.3"/><path class="cls-2" d="M272.056,182.3S241,216.91,211.333,225.576s-43.551,8.181-43.551,8.181"/><ellipse class="cls-2" cx="212.22" cy="225.576" rx="21.339" ry="41.349" transform="translate(-93.569 274.718) rotate(-55.877)"/><path class="cls-3" d="M253.674,102.017s8.705-4.922,24.43,1.964a38.4,38.4,0,0,1,18.013,16.62"/><path class="cls-3" d="M247.164,60.383s18.266-10.328,51.263,4.12a80.586,80.586,0,0,1,37.8,34.874"/><path class="cls-3" d="M229.152,7.819s32.277-18.25,90.586,7.28c46.986,20.573,66.79,61.626,66.79,61.626"/></svg>